<?xml version="1.0" standalone="no"?><!DOCTYPE svg PUBLIC "-//W3C//DTD SVG 1.1//EN" "http://www.w3.org/Graphics/SVG/1.1/DTD/svg11.dtd"><svg t="1721661492191" class="icon" viewBox="0 0 1150 1024" version="1.1" xmlns="http://www.w3.org/2000/svg" p-id="8809" width="143.75" height="128" xmlns:xlink="http://www.w3.org/1999/xlink"><path d="M1109.640222 511.635993a43.423286 43.423286 0 0 1-33.980982-15.548703 33.980983 33.980983 0 0 1-7.152404-20.241583v-122.241072a41.557441 41.557441 0 0 1 82.238501 0v122.297612a38.080186 38.080186 0 0 1-5.851966 17.753792 38.843486 38.843486 0 0 1-35.253149 17.979954z m-122.778209 101.971218a40.426627 40.426627 0 0 1-32.652275-15.633514 34.54639 34.54639 0 0 1-6.841429-20.156772V251.746498a39.691597 39.691597 0 0 1 25.38679-32.708816 40.030841 40.030841 0 0 1 34.885635 3.194552 39.663327 39.663327 0 0 1 18.884606 29.514264V577.930006a35.083527 35.083527 0 0 1-11.703933 25.443332 42.038038 42.038038 0 0 1-28.015935 10.346954l0.056541-0.084811z m-820.321274 0a39.041378 39.041378 0 0 1-18.658443-3.222822 39.493704 39.493704 0 0 1-23.464406-32.482653V251.746498a39.521975 39.521975 0 0 1 13.739399-26.489335 39.18273 39.18273 0 0 1 28.41172-9.21614 39.437164 39.437164 0 0 1 42.264201 35.705475V577.930006a33.839631 33.839631 0 0 1-12.523773 25.443332 45.967619 45.967619 0 0 1-29.768698 10.262143z m-124.615783-101.971218a44.921615 44.921615 0 0 1-29.514264-10.346955 33.641738 33.641738 0 0 1-12.410692-25.443331v-122.241072a39.295812 39.295812 0 0 1 26.85685-33.867902 38.447701 38.447701 0 0 1 15.068106-1.837573 39.013108 39.013108 0 0 1 37.712671 21.146235 39.097919 39.097919 0 0 1 4.212285 14.55924v122.297612a33.698279 33.698279 0 0 1-12.410692 25.443332 44.893345 44.893345 0 0 1-29.485994 10.290414h-0.02827z" fill="#EC532B" p-id="8810"></path><path d="M575.386804 689.880664a194.500133 194.500133 0 0 1-29.740427-2.431251 197.751226 197.751226 0 0 1-38.447701-9.95117 200.210748 200.210748 0 0 1-44.186586-22.616295 204.027247 204.027247 0 0 1-49.840659-48.172707 199.588799 199.588799 0 0 1-20.213313-34.207145 205.299414 205.299414 0 0 1-15.265999-47.211515 198.966851 198.966851 0 0 1-3.618607-39.578516V204.761146a199.390907 199.390907 0 0 1 7.859162-59.169881 196.818303 196.818303 0 0 1 10.431766-28.072475 197.129277 197.129277 0 0 1 20.128502-34.433309 198.457985 198.457985 0 0 1 34.037524-36.383964 199.306096 199.306096 0 0 1 41.924956-26.91339 200.069396 200.069396 0 0 1 57.077873-17.527628 201.709077 201.709077 0 0 1 125.690057 22.050887 199.814962 199.814962 0 0 1 47.720382 35.903367 199.108203 199.108203 0 0 1 30.249294 39.578516 201.115399 201.115399 0 0 1 27.507068 104.967877v280.894378a201.313292 201.313292 0 0 1-8.339759 58.915448 201.737347 201.737347 0 0 1-30.75816 62.109999 204.168599 204.168599 0 0 1-49.84066 48.172707 204.394762 204.394762 0 0 1-53.600618 25.839117 201.398103 201.398103 0 0 1-58.774095 9.159599z m121.958368-477.769222a122.127991 122.127991 0 0 0-48.059626-100.812133 121.562583 121.562583 0 0 0-67.792343-24.764843 122.127991 122.127991 0 0 0-112.007198 61.261888 120.601391 120.601391 0 0 0-13.173992 34.009253 116.586998 116.586998 0 0 0-2.629144 18.093036 118.735546 118.735546 0 0 0-0.254433 12.212799v119.442305h243.916736V212.139712z" fill="#004BBC" p-id="8811"></path><path d="M575.443345 0.507736a204.507844 204.507844 0 0 1 68.159857 12.410691 204.677466 204.677466 0 0 1 44.158315 22.616295 201.17194 201.17194 0 0 1 43.76253 40.257004 204.451303 204.451303 0 0 1 30.249294 51.225907 202.217944 202.217944 0 0 1 14.926755 77.630432v145.535855H374.073512V204.648065a197.807766 197.807766 0 0 1 2.035466-29.740428 201.991781 201.991781 0 0 1 26.178361-74.633772 199.447448 199.447448 0 0 1 23.464406-32.058597 200.069396 200.069396 0 0 1 37.316886-32.680546 204.309951 204.309951 0 0 1 63.184273-28.553072 203.122595 203.122595 0 0 1 49.190441-6.473914z" fill="#CCE1FF" p-id="8812"></path><path d="M612.929853 816.673266v134.595223h101.971218a30.984324 30.984324 0 0 1 6.954511 0.961192 35.140068 35.140068 0 0 1 15.520432 7.972244 37.458238 37.458238 0 0 1 6.841429 7.972244 36.581856 36.581856 0 0 1-2.827037 42.716526 33.161142 33.161142 0 0 1-5.003855 4.919044 31.153946 31.153946 0 0 1-5.851966 3.901311 39.352353 39.352353 0 0 1-6.502185 2.685685 35.592394 35.592394 0 0 1-10.403496 1.55487h-276.512471a32.652275 32.652275 0 0 1-7.124133-0.508866 36.468775 36.468775 0 0 1-18.799795-9.583655 32.99152 32.99152 0 0 1-4.579799-5.456181 34.122334 34.122334 0 0 1-4.636341-9.611925 35.988179 35.988179 0 0 1 4.636341-30.729891 35.055257 35.055257 0 0 1 7.265484-7.802621 41.359549 41.359549 0 0 1 5.993318-3.873041 39.013108 39.013108 0 0 1 10.120792-3.364174 32.426112 32.426112 0 0 1 7.124133-0.508866h89.475715l-1.272166-134.566953c-156.080703-15.887947-264.13005-131.739916-264.13005-272.215375v-47.692111a36.10126 36.10126 0 0 1 13.598047-27.309176 36.525316 36.525316 0 0 1 29.655616-7.293755 36.10126 36.10126 0 0 1 22.870728 14.926754 36.89283 36.89283 0 0 1 6.191211 16.198921c0.141352 1.159085 0.226163 2.31817 0.254433 3.477256V545.701786c0 111.865847 108.416862 188.9026 241.513755 188.902601 133.096893 0 241.513756-77.178105 241.513756-188.902601v-47.66384a36.016449 36.016449 0 0 1 8.594192-22.446673 36.440505 36.440505 0 0 1 27.704961-12.834747 36.044719 36.044719 0 0 1 25.301979 10.290414 36.440505 36.440505 0 0 1 10.968903 24.991006V545.701786c0 140.334108-121.562583 256.327428-277.812908 272.187105l1.498329-1.272166-0.113081 0.056541z" fill="#5D9CF9" p-id="8813"></path></svg>